<svg width="20" height="20" viewBox="0 0 20 20" fill="none" xmlns="http://www.w3.org/2000/svg">
<path d="M3.33337 9.16669L3.33337 17.5" stroke="black" stroke-width="1.5" stroke-linecap="round" stroke-linejoin="round"/>
<path d="M15.8334 10.8333L15.8334 17.5" stroke="black" stroke-width="1.5" stroke-linecap="round" stroke-linejoin="round"/>
<path d="M15.8334 2.5L15.8334 5.83333" stroke="black" stroke-width="1.5" stroke-linecap="round" stroke-linejoin="round"/>
<path d="M9.58337 2.5L9.58337 10.8333" stroke="black" stroke-width="1.5" stroke-linecap="round" stroke-linejoin="round"/>
<path d="M3.33337 2.5L3.33337 4.16667" stroke="black" stroke-width="1.5" stroke-linecap="round" stroke-linejoin="round"/>
<path d="M9.58337 15.8333L9.58337 17.5" stroke="black" stroke-width="1.5" stroke-linecap="round" stroke-linejoin="round"/>
<path d="M1.66663 7.91669C1.66663 7.5284 1.66663 7.33426 1.73006 7.18112C1.81464 6.97693 1.97687 6.8147 2.18106 6.73012C2.3342 6.66669 2.52834 6.66669 2.91663 6.66669H3.74996C4.13824 6.66669 4.33239 6.66669 4.48553 6.73012C4.68972 6.8147 4.85195 6.97693 4.93653 7.18112C4.99996 7.33426 4.99996 7.5284 4.99996 7.91669C4.99996 8.30497 4.99996 8.49911 4.93653 8.65226C4.85195 8.85645 4.68972 9.01868 4.48553 9.10325C4.33239 9.16669 4.13824 9.16669 3.74996 9.16669H2.91663C2.52834 9.16669 2.3342 9.16669 2.18106 9.10325C1.97687 9.01868 1.81464 8.85645 1.73006 8.65226C1.66663 8.49911 1.66663 8.30497 1.66663 7.91669Z" stroke="black" stroke-width="1.5" stroke-linecap="round" stroke-linejoin="round"/>
<path d="M14.1666 9.58331C14.1666 9.19503 14.1666 9.00089 14.2301 8.84774C14.3146 8.64355 14.4769 8.48133 14.6811 8.39675C14.8342 8.33331 15.0283 8.33331 15.4166 8.33331H16.25C16.6382 8.33331 16.8324 8.33331 16.9855 8.39675C17.1897 8.48133 17.3519 8.64355 17.4365 8.84774C17.5 9.00089 17.5 9.19503 17.5 9.58331C17.5 9.9716 17.5 10.1657 17.4365 10.3189C17.3519 10.5231 17.1897 10.6853 16.9855 10.7699C16.8324 10.8333 16.6382 10.8333 16.25 10.8333H15.4166C15.0283 10.8333 14.8342 10.8333 14.6811 10.7699C14.4769 10.6853 14.3146 10.5231 14.2301 10.3189C14.1666 10.1657 14.1666 9.9716 14.1666 9.58331Z" stroke="black" stroke-width="1.5" stroke-linecap="round" stroke-linejoin="round"/>
<path d="M7.91663 12.0833C7.91663 11.695 7.91663 11.5009 7.98006 11.3477C8.06464 11.1436 8.22687 10.9813 8.43106 10.8967C8.5842 10.8333 8.77834 10.8333 9.16663 10.8333H9.99996C10.3882 10.8333 10.5824 10.8333 10.7355 10.8967C10.9397 10.9813 11.1019 11.1436 11.1865 11.3477C11.25 11.5009 11.25 11.695 11.25 12.0833C11.25 12.4716 11.25 12.6657 11.1865 12.8189C11.1019 13.0231 10.9397 13.1853 10.7355 13.2699C10.5824 13.3333 10.3882 13.3333 9.99996 13.3333H9.16663C8.77834 13.3333 8.5842 13.3333 8.43106 13.2699C8.22687 13.1853 8.06464 13.0231 7.98006 12.8189C7.91663 12.6657 7.91663 12.4716 7.91663 12.0833Z" stroke="black" stroke-width="1.5" stroke-linecap="round" stroke-linejoin="round"/>
</svg>
